HIERARCHY
ROOT Model_Hips
{
	OFFSET 0.000000 96.915077 0.000000
	CHANNELS 6 Xposition Yposition Zposition Xrotation Yrotation Zrotation
	JOINT Model_Spine
	{
		OFFSET 0.000000 11.137703 -1.289900
		CHANNELS 3 Xrotation Yrotation Zrotation
		JOINT Model_Spine1
		{
			OFFSET 0.000000 12.993942 -1.504922
			CHANNELS 3 Xrotation Yrotation Zrotation
			JOINT Model_Spine2
			{
				OFFSET 0.000000 14.850220 -1.719911
				CHANNELS 3 Xrotation Yrotation Zrotation
				JOINT Model_Neck
				{
					OFFSET 0.000000 16.706543 -1.934903
					CHANNELS 3 Xrotation Yrotation Zrotation
					JOINT Model_Head
					{
						OFFSET 0.000000 10.471298 2.002100
						CHANNELS 3 Xrotation Yrotation Zrotation
						JOINT Model_HeadTop_End
						{
							OFFSET 0.000000 20.842606 3.985100
							CHANNELS 3 Xrotation Yrotation Zrotation
							End Site
							{
								OFFSET 0.000000 21.220154 0.000000
							}
						}
					}
				}
				JOINT Model_LeftShoulder
				{
					OFFSET 7.008500 14.768600 -1.919946
					CHANNELS 3 Xrotation Yrotation Zrotation
					JOINT Model_LeftArm
					{
						OFFSET 14.126271 -3.718048 0.029937
						CHANNELS 3 Xrotation Yrotation Zrotation
						JOINT Model_LeftForeArm
						{
							OFFSET 28.282801 0.000000 0.000000
							CHANNELS 3 Xrotation Yrotation Zrotation
							JOINT Model_LeftHand
							{
								OFFSET 26.204689 0.000000 0.000000
								CHANNELS 3 Xrotation Yrotation Zrotation
								End Site
								{
									OFFSET 26.204704 0.000000 0.000000
								}
							}
						}
					}
				}
				JOINT Model_RightShoulder
				{
					OFFSET -7.008500 14.768555 -1.949840
					CHANNELS 3 Xrotation Yrotation Zrotation
					JOINT Model_RightArm
					{
						OFFSET -14.126281 -3.718018 -0.029932
						CHANNELS 3 Xrotation Yrotation Zrotation
						JOINT Model_RightForeArm
						{
							OFFSET -28.283798 0.000000 -0.000001
							CHANNELS 3 Xrotation Yrotation Zrotation
							JOINT Model_RightHand
							{
								OFFSET -26.204193 0.000000 -0.000001
								CHANNELS 3 Xrotation Yrotation Zrotation
								End Site
								{
									OFFSET -26.204208 0.000000 -0.000001
								}
							}
						}
					}
				}
			}
		}
	}
	JOINT Model_LeftUpLeg
	{
		OFFSET 8.327700 -6.193199 -0.402800
		CHANNELS 3 Xrotation Yrotation Zrotation
		JOINT Model_LeftLeg
		{
			OFFSET 0.735802 -42.108742 -0.610721
			CHANNELS 3 Xrotation Yrotation Zrotation
			JOINT Model_LeftFoot
			{
				OFFSET -0.735806 -36.833748 -0.172876
				CHANNELS 3 Xrotation Yrotation Zrotation
				JOINT Model_LeftToeBase
				{
					OFFSET -0.565857 -11.977769 16.297714
					CHANNELS 3 Xrotation Yrotation Zrotation
					JOINT Model_LeftToe_End
					{
						OFFSET -0.111712 -0.312793 7.857784
						CHANNELS 3 Xrotation Yrotation Zrotation
						End Site
						{
							OFFSET -0.111712 -0.312793 7.857784
						}
					}
				}
			}
		}
	}
	JOINT Model_RightUpLeg
	{
		OFFSET -8.327700 -6.193199 -0.516500
		CHANNELS 3 Xrotation Yrotation Zrotation
		JOINT Model_RightLeg
		{
			OFFSET -0.735785 -42.108738 -0.434061
			CHANNELS 3 Xrotation Yrotation Zrotation
			JOINT Model_RightFoot
			{
				OFFSET 0.735776 -36.833748 -0.021630
				CHANNELS 3 Xrotation Yrotation Zrotation
				JOINT Model_RightToeBase
				{
					OFFSET 0.565817 -11.977745 15.903093
					CHANNELS 3 Xrotation Yrotation Zrotation
					JOINT Model_RightToe_End
					{
						OFFSET 0.111702 -0.312791 7.811342
						CHANNELS 3 Xrotation Yrotation Zrotation
						End Site
						{
							OFFSET 0.111702 -0.312791 7.811342
						}
					}
				}
			}
		}
	}
}
MOTION
Frames: 11
Frame Time: 0.033333
2.990307 96.774864 22.455919 -71.680561 86.064639 68.389660 3.159211 -0.116443 0.399317 1.110164 0.013956 0.310285 1.110428 0.021713 0.309089 8.436494 9.578220 2.673497 8.031019 9.859528 1.824684 -0.000001 -0.000002 0.000000 1.407667 -13.194350 -11.599755 1.824822 -17.260708 -60.330781 0.000003 -10.922862 -0.000017 -0.000003 -0.000000 0.000001 1.679688 7.927179 12.107622 -2.400547 -2.051518 67.617643 0.000011 14.025763 0.000003 -0.000000 0.000001 -0.000000 -67.614290 57.702189 71.947314 21.333766 -10.194430 1.926162 -17.605636 -18.422152 -24.623223 -6.953583 0.000022 0.000003 0.000001 0.000000 0.000002 -2.833048 -2.672388 9.157980 11.704525 9.563663 -8.125896 -3.415467 10.736984 0.337775 -1.606875 0.000001 0.000000 -0.000000 -0.000001 0.000000 
2.565725 96.879280 21.243626 -131.279446 85.026682 128.113599 3.095386 0.037986 0.356701 1.096218 0.034031 0.282138 1.096286 0.040228 0.281248 8.273331 9.111757 2.741801 7.878145 9.380927 1.935044 0.000001 0.000001 -0.000000 1.250648 -13.763632 -11.320726 2.891288 -16.452333 -61.731236 -0.000002 -9.109358 0.000006 -0.000000 -0.000000 0.000000 1.395852 8.611593 12.916083 -3.857719 -2.858396 65.515011 0.000007 13.796710 0.000002 -0.000000 0.000001 0.000001 -67.429622 56.898010 72.164439 23.165840 -9.766885 0.918808 -12.116705 -17.494479 -19.220280 -7.283845 -0.000015 -0.000001 0.000002 0.000000 -0.000002 -1.779080 -1.905201 7.902965 9.289581 9.470958 -8.163121 -3.007858 9.650598 1.842787 -1.472009 -0.000010 0.000001 0.000000 -0.000002 0.000000 
2.165008 96.908463 19.941200 -154.307101 81.357662 151.282065 3.044917 0.085404 0.255512 1.089142 0.044882 0.247401 1.089057 0.049692 0.246761 8.075538 8.590752 2.839135 7.693405 8.845805 2.080385 0.000000 -0.000001 -0.000000 1.115375 -13.983784 -11.388157 3.624243 -15.122792 -63.127928 -0.000004 -7.794191 0.000007 -0.000001 0.000001 0.000000 1.145638 9.056068 13.946546 -4.018252 -0.912754 63.732454 0.000013 13.416532 -0.000012 -0.000000 -0.000001 -0.000000 -64.834614 56.104943 69.885410 24.504361 -8.488044 0.205461 -7.017818 -13.977916 -11.885021 -7.628363 -0.000014 -0.000006 -0.000001 0.000001 -0.000000 -1.699998 -0.801339 6.536298 9.326532 9.526484 -8.081977 -3.645398 7.678322 2.856915 -1.483476 -0.000011 0.000004 0.000000 -0.000000 0.000000 
1.768522 96.856651 18.702251 -162.945282 77.165654 160.079444 3.009730 0.052094 0.166755 1.084685 0.035092 0.208289 1.084584 0.038714 0.207795 7.873854 8.022175 2.927637 7.507651 8.261340 2.221446 0.000001 0.000001 -0.000001 0.961541 -14.039634 -11.834431 4.223851 -13.491909 -64.285419 -0.000005 -6.999987 -0.000010 -0.000003 0.000001 0.000000 0.926258 9.251500 15.119711 -2.944131 3.615046 62.277719 0.000012 13.080338 0.000001 -0.000001 -0.000001 0.000001 -59.465526 55.508572 64.981887 24.609815 -6.934373 -0.273541 -3.431688 -6.928131 -4.940741 -8.001273 0.000013 -0.000002 0.000000 -0.000000 -0.000000 -3.345575 0.476595 5.077677 13.277420 9.681425 -7.658549 -5.722993 5.662164 3.079298 -2.026467 -0.000042 -0.000005 0.000000 0.000001 0.000000 
1.354372 96.742386 17.439903 -167.227114 72.861357 164.532809 2.975059 -0.014527 0.148022 1.071757 0.010866 0.170529 1.071745 0.013486 0.170104 7.691913 7.405759 2.967553 7.344635 7.627230 2.317719 0.000001 0.000001 -0.000001 0.774086 -14.081628 -12.625137 4.838252 -11.928632 -65.026543 -0.000003 -6.550314 0.000010 -0.000001 0.000000 0.000001 0.741874 9.260009 16.271140 -1.336586 9.627448 60.944863 0.000006 12.918213 -0.000006 0.000003 -0.000002 0.000001 -51.313695 54.803771 57.591534 23.477372 -5.176568 -0.425748 -1.526489 1.874078 -0.721049 -8.378430 0.000001 0.000001 0.000001 -0.000000 -0.000000 -5.303903 1.840128 3.461451 18.101641 9.719904 -6.815946 -7.852155 4.767012 2.992066 -3.480899 0.000005 0.000005 0.000000 0.000004 0.000000 
0.895825 96.589188 16.028496 -169.737181 68.548783 167.229327 2.911065 -0.070386 0.194015 1.039222 -0.013197 0.139154 1.039291 -0.011400 0.138785 7.537164 6.745123 2.937299 7.211843 6.947373 2.346958 0.000000 0.000002 -0.000001 0.568956 -14.148336 -13.654104 5.484076 -10.722706 -65.253373 -0.000007 -6.229797 0.000008 -0.000000 -0.000000 -0.000000 0.593080 9.206991 17.243726 -0.057913 15.614646 59.692534 0.000019 12.922487 0.000009 0.000003 0.000001 -0.000000 -41.344897 53.499779 48.643354 21.201355 -4.209703 -0.227258 -0.299455 10.842488 -0.038171 -8.683775 -0.000007 0.000002 0.000001 0.000000 -0.000001 -7.059106 3.135806 1.686592 22.737003 9.690898 -5.766211 -9.455530 4.919472 3.001705 -5.951006 0.000017 0.000001 0.000000 0.000000 -0.000000 
0.361650 96.411781 14.476902 -171.366783 64.271267 169.054763 2.792469 -0.090368 0.277352 0.984097 -0.025991 0.118384 0.984182 -0.023474 0.117709 7.401423 6.053884 2.836151 7.100777 6.235529 2.307646 0.000002 -0.000002 0.000000 0.370097 -14.225958 -14.773213 6.087586 -9.977141 -64.944369 0.000000 -5.914891 -0.000005 -0.000001 -0.000000 0.000000 0.471975 9.213326 17.980009 0.373678 20.446129 58.663894 0.000006 12.977483 0.000004 -0.000000 -0.000002 0.000001 -31.596988 51.266918 39.868811 18.255742 -3.852245 0.178430 1.156978 18.108109 -2.114986 -8.823038 -0.000005 -0.000006 0.000001 -0.000001 0.000000 -8.277113 4.390153 -0.098213 26.579422 9.606254 -4.791040 -10.392719 5.348944 3.376200 -9.094771 0.000009 0.000004 -0.000000 0.000001 0.000000 
-0.273083 96.229538 12.894042 -172.498722 60.051775 170.374998 2.625409 -0.066381 0.400402 0.916695 -0.024485 0.113690 0.916730 -0.022976 0.113209 7.267925 5.351707 2.675977 6.994288 5.511786 2.210546 0.000001 0.000000 -0.000000 0.198314 -14.292223 -15.841309 6.556640 -9.634939 -64.171881 0.000004 -5.581856 0.000004 -0.000001 -0.000000 0.000000 0.372661 9.320919 18.536461 0.053282 23.819115 57.881011 0.000017 12.964018 0.000006 -0.000002 -0.000000 0.000001 -24.261657 48.215654 32.915272 15.951318 -3.545487 0.624676 2.483654 22.621569 -5.254861 -8.748146 -0.000003 -0.000001 0.000000 -0.000001 -0.000000 -8.850964 5.706006 -1.655608 29.463172 9.467962 -4.123277 -10.768889 5.149584 4.219848 -12.468710 -0.000021 0.000006 0.000000 -0.000002 0.000000 
-1.011661 96.062599 11.376104 -173.323031 55.904948 171.373271 2.458406 0.011986 0.592209 0.858615 -0.006601 0.133156 0.858475 -0.006014 0.133031 7.122064 4.657280 2.473747 6.877225 4.795222 2.071532 0.000000 0.000001 -0.000000 0.068581 -14.341391 -16.748923 6.821045 -9.564623 -63.149019 -0.000007 -5.241325 0.000013 0.000001 -0.000000 -0.000000 0.298351 9.496705 18.994633 -0.524549 26.097012 57.202732 0.000011 12.840295 0.000026 -0.000000 0.000000 0.000001 -20.141207 44.860624 28.225837 15.372410 -3.364261 1.098233 2.912127 24.617481 -8.127608 -8.494250 -0.000009 -0.000001 0.000000 -0.000001 -0.000000 -8.781006 7.075070 -2.884664 31.391140 9.236820 -3.809134 -10.748652 3.818346 5.543169 -15.637423 -0.000022 -0.000004 -0.000000 -0.000000 0.000000 
-1.831643 95.928665 9.962458 -173.943963 51.841891 172.153689 2.360914 0.144560 0.877132 0.833157 0.025586 0.181653 0.832667 0.026315 0.181684 6.951896 3.988653 2.259504 6.736912 4.104716 1.919364 0.000001 0.000001 -0.000000 -0.011882 -14.399697 -17.401266 6.860636 -9.698819 -62.197157 -0.000004 -4.896196 -0.000001 -0.000000 0.000000 0.000001 0.255812 9.702357 19.354386 -1.032883 27.826165 56.603752 0.000007 12.673982 0.000015 -0.000002 0.000001 -0.000000 -19.143982 41.489400 25.444753 17.641221 -3.319496 1.740080 0.973169 24.807257 -8.854046 -8.160331 0.000017 -0.000003 -0.000000 0.000000 -0.000000 -8.105958 8.274469 -3.995003 32.341830 8.862529 -3.500098 -10.396222 1.636418 7.202559 -18.235995 -0.000018 -0.000001 -0.000000 -0.000003 -0.000000 
-2.688829 95.841972 8.659065 -174.423333 47.872379 172.788090 2.380973 0.302920 1.223638 0.852461 0.062887 0.255407 0.851348 0.063802 0.255656 6.750259 3.366973 2.075546 6.565769 3.462282 1.795296 0.000000 0.000001 -0.000000 -0.038835 -14.504585 -17.703975 6.720373 -10.087314 -61.643687 -0.000006 -4.541703 0.000011 -0.000000 0.000000 -0.000002 0.248122 9.941608 19.529285 -1.530365 29.338360 56.262563 0.000016 12.591733 -0.000008 -0.000002 -0.000001 -0.000002 -19.135805 38.640016 23.142383 20.329428 -3.162499 2.605157 -1.322231 23.873480 -8.351740 -7.865300 0.000005 0.000003 0.000001 -0.000001 -0.000000 -6.999396 8.904489 -5.318639 32.350931 7.790337 -2.599990 -9.844875 0.006627 8.704376 -19.909460 0.000000 -0.000002 0.000000 0.000000 0.000000 
